# Blender 4.3.2
# www.blender.org
mtllib gameAvatar.mtl
o Cube
v 0.876415 2.553017 -0.360952
v 0.158267 1.831112 -0.360952
v 0.876415 2.553017 0.360953
v 0.158267 1.831112 0.360953
v 0.000000 1.831112 -0.360952
v 0.000000 2.553017 0.360953
v 0.000000 1.831112 0.360953
v 0.000000 2.553017 -0.360952
v 0.876415 4.272436 -0.360952
v 0.876415 4.272436 0.360953
v 0.000000 4.272436 -0.360952
v 0.000000 4.272436 0.360953
v 0.000000 2.989116 -0.360952
v 0.000000 3.562256 -0.360952
v 0.876415 3.562256 -0.360952
v 0.876415 2.989116 -0.360952
v 0.876415 3.562256 0.360953
v 0.876415 2.989116 0.360953
v 0.000000 3.562256 0.360953
v 0.000000 2.989116 0.360953
v 0.663151 2.023620 -0.360952
v 0.663151 2.023620 0.360953
v 0.000000 2.023620 0.360953
v 0.000000 2.023620 -0.360952
v 0.594103 1.444397 -0.224215
v 0.242781 1.444397 -0.224215
v 0.594103 1.444397 0.278120
v 0.242781 1.444397 0.278120
v 0.594103 1.153589 -0.224215
v 0.242781 1.153589 -0.224215
v 0.594103 1.153589 0.278120
v 0.242781 1.153589 0.278120
v 0.594103 0.933782 -0.224215
v 0.242781 0.933782 -0.224215
v 0.594103 0.933782 0.278120
v 0.242781 0.933782 0.278120
v 0.594103 0.040804 -0.224215
v 0.242781 0.040804 -0.224215
v 0.594103 0.040804 0.278120
v 0.242781 0.040804 0.278120
v 1.095021 4.110220 -0.196058
v 1.095021 4.110220 0.196058
v 1.095021 3.724472 -0.196058
v 1.095021 3.724472 0.196058
v 2.177215 4.043663 -0.128402
v 2.177215 4.043663 0.128402
v 2.177215 3.791030 -0.128402
v 2.177215 3.791030 0.128402
v 2.330823 4.043663 -0.128402
v 2.330823 4.043663 0.128402
v 2.330823 3.791030 -0.128402
v 2.330823 3.791030 0.128402
v 3.208355 4.043663 -0.128402
v 3.208355 4.043663 0.128402
v 3.208355 3.791030 -0.128402
v 3.208355 3.791030 0.128402
v 0.269999 4.470459 -0.259115
v 0.269589 4.475575 0.256513
v 0.000000 4.470459 -0.259115
v 0.000000 4.470459 0.259116
v 0.269999 4.623328 -0.259115
v 0.269999 4.623328 0.259116
v 0.000000 4.623328 -0.259115
v 0.000000 4.623328 0.259116
v 0.455733 4.672844 -0.127826
v 0.455733 4.672844 0.128478
v 0.000000 4.820290 -0.577930
v 0.000000 4.573709 0.406923
v 0.455733 5.285248 -0.291998
v 0.455733 5.285248 0.292650
v 0.000000 5.137803 -0.577930
v 0.000000 5.417261 0.406923
v -0.876415 2.553017 -0.360952
v -0.158267 1.831112 -0.360952
v -0.876415 2.553017 0.360953
v -0.158267 1.831112 0.360953
v -0.876415 4.272436 -0.360952
v -0.876415 4.272436 0.360953
v -0.876415 3.562256 -0.360952
v -0.876415 2.989116 -0.360952
v -0.876415 3.562256 0.360953
v -0.876415 2.989116 0.360953
v -0.663151 2.023620 -0.360952
v -0.663151 2.023620 0.360953
v -0.594103 1.444397 -0.224215
v -0.242781 1.444397 -0.224215
v -0.594103 1.444397 0.278120
v -0.242781 1.444397 0.278120
v -0.594103 1.153589 -0.224215
v -0.242781 1.153589 -0.224215
v -0.594103 1.153589 0.278120
v -0.242781 1.153589 0.278120
v -0.594103 0.933782 -0.224215
v -0.242781 0.933782 -0.224215
v -0.594103 0.933782 0.278120
v -0.242781 0.933782 0.278120
v -0.594103 0.040804 -0.224215
v -0.242781 0.040804 -0.224215
v -0.594103 0.040804 0.278120
v -0.242781 0.040804 0.278120
v -1.095021 4.110220 -0.196058
v -1.095021 4.110220 0.196058
v -1.095021 3.724472 -0.196058
v -1.095021 3.724472 0.196058
v -2.177215 4.043663 -0.128402
v -2.177215 4.043663 0.128402
v -2.177215 3.791030 -0.128402
v -2.177215 3.791030 0.128402
v -2.330823 4.043663 -0.128402
v -2.330823 4.043663 0.128402
v -2.330823 3.791030 -0.128402
v -2.330823 3.791030 0.128402
v -3.208355 4.043663 -0.128402
v -3.208355 4.043663 0.128402
v -3.208355 3.791030 -0.128402
v -3.208355 3.791030 0.128402
v -0.269999 4.470459 -0.259115
v -0.269589 4.475575 0.256513
v -0.269999 4.623328 -0.259115
v -0.269999 4.623328 0.259116
v -0.455733 4.672844 -0.127826
v -0.455733 4.672844 0.128478
v -0.455733 5.285248 -0.291998
v -0.455733 5.285248 0.292650
vt 0.738492 0.641152
vt 0.716374 0.742042
vt 0.716374 0.641108
vt 0.898985 0.141046
vt 1.000000 0.216515
vt 0.898986 0.216514
vt 0.449775 0.289859
vt 0.542565 0.363941
vt 0.449775 0.363930
vt 0.449775 0.148652
vt 0.572405 0.049301
vt 0.572405 0.148666
vt 0.357034 0.363953
vt 0.449775 0.289843
vt 0.449775 0.363915
vt 0.449775 0.049287
vt 0.487681 0.021393
vt 0.999933 0.581020
vt 0.921261 0.613186
vt 0.898985 0.580860
vt 0.327210 0.148682
vt 0.449775 0.049266
vt 0.449775 0.148633
vt 0.327210 0.289893
vt 0.449775 0.228825
vt 0.327210 0.228875
vt 1.000000 0.080099
vt 0.999999 0.141046
vt 0.898985 0.080099
vt 1.000000 0.000000
vt 0.572405 0.228857
vt 0.572405 0.289874
vt 0.449775 0.228842
vt 0.427642 0.390859
vt 0.449775 0.390851
vt 0.471920 0.390867
vt 0.449775 0.390864
vt 0.533074 0.444724
vt 0.483916 0.444718
vt 0.632591 0.695776
vt 0.562300 0.736410
vt 0.562300 0.695776
vt 0.550709 0.641108
vt 0.366302 0.444853
vt 0.918119 0.297943
vt 0.988409 0.338585
vt 0.918118 0.369304
vt 0.918119 0.338585
vt 0.483916 0.485407
vt 0.988409 0.297944
vt 0.415434 0.444834
vt 0.366302 0.485543
vt 0.632591 0.767122
vt 0.562300 0.891895
vt 0.562300 0.767122
vt 0.415434 0.485523
vt 0.366302 0.516297
vt 0.632591 0.736410
vt 0.533074 0.485413
vt 0.483916 0.516161
vt 0.324461 0.641338
vt 0.275361 0.711475
vt 0.275361 0.641241
vt 0.533074 0.516167
vt 0.483916 0.641102
vt 0.988409 0.369305
vt 0.918118 0.494102
vt 0.415434 0.516278
vt 0.366302 0.641241
vt 0.471987 0.936919
vt 0.517280 0.785215
vt 0.526811 0.936919
vt 0.295865 0.071749
vt 0.327210 0.049316
vt 0.603199 0.125663
vt 0.449775 0.968597
vt 0.550709 0.968597
vt 0.754706 0.080894
vt 0.776199 0.116244
vt 0.754706 0.116241
vt 0.603199 0.071691
vt 0.144204 0.116356
vt 0.144204 0.081009
vt 0.976093 0.613272
vt 0.930580 0.764891
vt 0.122722 0.116365
vt 0.000000 0.081067
vt 0.122722 0.081017
vt 0.966490 0.764948
vt 0.930608 0.786318
vt 0.481375 0.785215
vt 0.517323 0.763748
vt 0.345825 0.641241
vt 0.381131 0.677175
vt 0.345825 0.677175
vt 0.966518 0.786375
vt 0.930766 0.908724
vt 0.481417 0.763748
vt 0.517566 0.641108
vt 0.776199 0.080897
vt 0.898985 0.116259
vt 0.411584 0.020684
vt 0.449298 0.000000
vt 0.449298 0.021389
vt 0.914119 0.494103
vt 0.986248 0.494103
vt 0.037734 0.686854
vt 0.001199 0.641241
vt 0.064102 0.704889
vt 0.345113 0.641605
vt 0.324461 0.713756
vt 0.324461 0.641241
vt 0.449902 0.021389
vt 0.487681 0.000005
vt 0.211081 0.706672
vt 0.275362 0.641241
vt 0.275362 0.726616
vt 0.000267 0.759375
vt 0.064234 0.740724
vt -0.000000 0.780319
vt 0.038001 0.759311
vt 0.714555 0.740748
vt 0.651724 0.641108
vt 0.716374 0.659013
vt 0.129273 0.759268
vt 0.065003 0.659546
vt 0.129273 0.641241
vt 0.152245 0.726827
vt 0.211081 0.641241
vt 0.188109 0.726827
vt 0.651724 0.641108
vt 0.295865 0.125722
vt -0.000000 0.686919
vt 0.345825 0.713756
vt 0.651724 0.780270
vt 0.064234 0.744957
vt 0.738492 0.742086
vt 0.898986 -0.000000
vt 0.632591 0.891895
vt 0.324461 0.711573
vt 0.533074 0.641108
vt 0.988408 0.494103
vt 0.415434 0.641221
vt 0.000000 0.116414
vt 0.381131 0.641241
vt 0.966676 0.908781
vt 0.481660 0.641108
vt 0.898985 0.080912
vt 0.411539 0.000015
vt 0.449902 0.000000
vt 0.211188 0.662247
vn -0.0000 -1.0000 -0.0000
vn 0.9276 -0.3737 -0.0000
vn -0.0000 -0.0000 -1.0000
vn -0.0000 -0.0000 1.0000
vn -0.0000 0.4573 -0.8893
vn 0.5959 0.8031 -0.0000
vn 1.0000 -0.0000 -0.0000
vn -0.0000 -0.3334 -0.9428
vn -1.0000 -0.0000 -0.0000
vn -0.9769 -0.2135 -0.0000
vn 0.0564 -0.1479 0.9874
vn 0.9930 -0.1184 -0.0000
vn 0.0614 -0.9981 -0.0000
vn 0.6022 -0.0000 0.7983
vn 0.6022 -0.0000 -0.7984
vn 0.5959 -0.8031 -0.0000
vn 0.0624 -0.0000 -0.9981
vn 0.0624 -0.0000 0.9981
vn 0.0614 0.9981 -0.0000
vn -0.0000 1.0000 -0.0000
vn 0.0097 -0.0000 1.0000
vn -0.0001 0.4573 0.8893
vn 0.3188 0.9478 -0.0092
vn 0.6014 -0.3432 -0.7214
vn 1.0000 -0.0028 -0.0000
vn 0.6564 -0.1953 -0.7286
vn 0.0118 -0.9479 -0.3182
vn 0.2576 -0.9663 -0.0000
vn 0.2782 0.9605 -0.0000
vn 0.2432 -0.0000 0.9700
vn -0.9276 -0.3737 -0.0000
vn -0.5959 0.8031 -0.0000
vn -0.0912 -0.2391 -0.9667
vn 0.9769 -0.2135 -0.0000
vn -0.0564 -0.1479 0.9874
vn -0.9930 -0.1184 -0.0000
vn -0.0614 -0.9981 -0.0000
vn -0.6022 -0.0000 0.7983
vn -0.6022 -0.0000 -0.7984
vn -0.5959 -0.8031 -0.0000
vn -0.0624 -0.0000 -0.9981
vn -0.0624 -0.0000 0.9981
vn -0.0614 0.9981 -0.0000
vn -0.0097 -0.0000 1.0000
vn -0.0000 0.4572 0.8893
vn -0.3104 0.9506 -0.0000
vn -0.0000 -0.8507 -0.5256
vn -1.0000 -0.0000 0.0008
vn -0.6564 -0.1953 -0.7286
vn -0.0000 0.9351 0.3544
vn -0.2576 -0.9663 -0.0000
vn 0.1386 0.9527 -0.2703
vn -0.5429 -0.2175 0.8112
vn 0.0912 -0.2391 -0.9667
vn -0.0000 -0.2094 0.9778
vn 0.6022 -0.0000 0.7984
vn -0.0000 -0.0176 0.9998
vn 0.3104 0.9506 -0.0000
vn 1.0000 -0.0000 0.0008
vn 0.5315 -0.0000 -0.8471
vn -0.1386 0.9527 -0.2703
vn 0.5429 -0.2175 0.8112
vn -0.6022 -0.0000 0.7984
vn 0.0001 0.4573 0.8893
vn -0.3188 0.9478 -0.0092
vn -0.6014 -0.3432 -0.7214
vn -1.0000 -0.0028 -0.0000
vn -0.5315 -0.0000 -0.8471
vn -0.0118 -0.9479 -0.3182
vn -0.2782 0.9605 -0.0000
vn -0.2432 -0.0000 0.9700
s 0
usemtl Material
f 2/1/1 7/2/1 5/3/1
f 1/4/2 22/5/2 21/6/2
f 8/7/3 21/8/3 24/9/3
f 14/10/3 9/11/3 15/12/3
f 22/13/4 6/14/4 23/15/4
f 11/16/5 57/17/5 9/11/5
f 10/18/6 41/19/6 9/20/6
f 17/21/4 12/22/4 19/23/4
f 3/24/4 20/25/4 6/14/4
f 18/26/4 19/23/4 20/25/4
f 1/4/7 18/27/7 3/28/7
f 16/29/7 17/30/7 18/27/7
f 8/7/3 16/31/3 1/32/3
f 13/33/3 15/12/3 16/31/3
f 4/34/4 23/15/4 7/35/4
f 24/9/3 2/36/3 5/37/3
f 2/36/8 25/38/8 26/39/8
f 26/40/9 32/41/9 28/42/9
f 4/43/10 26/40/10 28/42/10
f 4/34/11 27/44/11 22/13/11
f 22/5/12 25/45/12 21/6/12
f 31/46/7 33/47/7 29/48/7
f 25/38/3 30/49/3 26/39/3
f 27/50/7 29/48/7 25/45/7
f 28/51/4 31/52/4 27/44/4
f 34/53/9 40/54/9 36/55/9
f 32/56/4 35/57/4 31/52/4
f 30/58/9 36/55/9 32/41/9
f 29/59/3 34/60/3 30/49/3
f 37/61/1 40/62/1 38/63/1
f 33/64/3 38/65/3 34/60/3
f 35/66/7 37/67/7 33/47/7
f 36/68/4 39/69/4 35/57/4
f 43/70/13 48/71/13 44/72/13
f 17/21/14 42/73/14 10/74/14
f 9/11/15 43/75/15 15/12/15
f 15/76/16 44/72/16 17/77/16
f 45/78/3 51/79/3 47/80/3
f 41/81/17 47/80/17 43/75/17
f 42/73/18 48/82/18 46/83/18
f 42/84/19 45/85/19 41/19/19
f 52/86/4 54/87/4 50/88/4
f 48/82/4 50/88/4 46/83/4
f 46/89/20 49/90/20 45/85/20
f 47/91/1 52/92/1 48/71/1
f 55/93/7 54/94/7 56/95/7
f 50/96/20 53/97/20 49/90/20
f 51/98/1 56/99/1 52/92/1
f 49/100/3 55/101/3 51/79/3
f 58/102/21 64/103/21 60/104/21
f 12/22/22 58/102/22 60/104/22
f 10/18/23 57/105/23 58/106/23
f 61/107/24 67/108/24 65/109/24
f 58/110/25 61/111/25 62/112/25
f 59/113/3 61/114/3 57/17/3
f 67/115/26 69/116/26 65/117/26
f 64/118/27 66/119/27 68/120/27
f 62/121/28 65/109/28 66/119/28
f 69/122/29 72/123/29 70/124/29
f 68/125/30 70/126/30 72/127/30
f 65/128/7 70/129/7 66/130/7
f 7/2/1 74/1/1 5/3/1
f 84/5/31 73/4/31 83/6/31
f 83/8/3 8/7/3 24/9/3
f 77/11/3 14/10/3 79/12/3
f 84/13/4 6/14/4 75/24/4
f 117/17/5 11/16/5 77/11/5
f 101/19/32 78/18/32 77/20/32
f 12/22/4 81/21/4 19/23/4
f 20/25/4 75/24/4 6/14/4
f 19/23/4 82/26/4 20/25/4
f 82/27/9 73/4/9 75/28/9
f 81/30/9 80/29/9 82/27/9
f 80/31/3 8/7/3 73/32/3
f 79/12/3 13/33/3 80/31/3
f 76/34/4 23/15/4 84/13/4
f 74/36/3 24/9/3 5/37/3
f 74/36/33 85/38/33 83/8/33
f 92/41/7 86/40/7 88/42/7
f 76/43/34 86/40/34 74/131/34
f 87/44/35 76/34/35 84/13/35
f 85/45/36 84/5/36 83/6/36
f 93/47/9 91/46/9 89/48/9
f 90/49/3 85/38/3 86/39/3
f 89/48/9 87/50/9 85/45/9
f 91/52/4 88/51/4 87/44/4
f 100/54/7 94/53/7 96/55/7
f 95/57/4 92/56/4 91/52/4
f 96/55/7 90/58/7 92/41/7
f 94/60/3 89/59/3 90/49/3
f 100/62/1 97/61/1 98/63/1
f 98/65/3 93/64/3 94/60/3
f 97/67/9 95/66/9 93/47/9
f 99/69/4 96/68/4 95/57/4
f 108/71/37 103/70/37 104/72/37
f 102/73/38 81/21/38 78/74/38
f 103/75/39 77/11/39 79/12/39
f 104/72/40 79/76/40 81/77/40
f 111/79/3 105/78/3 107/80/3
f 107/80/41 101/81/41 103/75/41
f 106/83/42 104/132/42 102/73/42
f 105/85/43 102/84/43 101/19/43
f 114/87/4 112/86/4 110/88/4
f 110/88/4 108/82/4 106/83/4
f 109/90/20 106/89/20 105/85/20
f 112/92/1 107/91/1 108/71/1
f 114/94/9 115/93/9 116/95/9
f 113/97/20 110/96/20 109/90/20
f 116/99/1 111/98/1 112/92/1
f 115/101/3 109/100/3 111/79/3
f 64/103/44 118/102/44 60/104/44
f 12/22/45 118/102/45 78/74/45
f 78/18/46 117/105/46 77/20/46
f 119/107/47 67/108/47 63/133/47
f 118/110/48 119/111/48 117/134/48
f 119/114/3 59/113/3 117/17/3
f 123/116/49 67/115/49 121/117/49
f 64/118/50 122/119/50 120/121/50
f 120/121/51 121/109/51 119/107/51
f 123/122/52 72/123/52 71/135/52
f 68/125/53 124/126/53 122/136/53
f 122/130/9 123/127/9 121/128/9
f 2/1/1 4/137/1 7/2/1
f 1/4/2 3/28/2 22/5/2
f 8/7/3 1/32/3 21/8/3
f 14/10/3 11/16/3 9/11/3
f 22/13/4 3/24/4 6/14/4
f 11/16/5 59/113/5 57/17/5
f 10/18/6 42/84/6 41/19/6
f 17/21/4 10/74/4 12/22/4
f 3/24/4 18/26/4 20/25/4
f 18/26/4 17/21/4 19/23/4
f 1/4/7 16/29/7 18/27/7
f 16/29/7 15/138/7 17/30/7
f 8/7/3 13/33/3 16/31/3
f 13/33/3 14/10/3 15/12/3
f 4/34/4 22/13/4 23/15/4
f 24/9/3 21/8/3 2/36/3
f 2/36/54 21/8/54 25/38/54
f 26/40/9 30/58/9 32/41/9
f 4/43/10 2/131/10 26/40/10
f 4/34/55 28/51/55 27/44/55
f 22/5/12 27/50/12 25/45/12
f 31/46/7 35/66/7 33/47/7
f 25/38/3 29/59/3 30/49/3
f 27/50/7 31/46/7 29/48/7
f 28/51/4 32/56/4 31/52/4
f 34/53/9 38/139/9 40/54/9
f 32/56/4 36/68/4 35/57/4
f 30/58/9 34/53/9 36/55/9
f 29/59/3 33/64/3 34/60/3
f 37/61/1 39/140/1 40/62/1
f 33/64/3 37/141/3 38/65/3
f 35/66/7 39/142/7 37/67/7
f 36/68/4 40/143/4 39/69/4
f 43/70/13 47/91/13 48/71/13
f 17/21/56 44/132/56 42/73/56
f 9/11/15 41/81/15 43/75/15
f 15/76/16 43/70/16 44/72/16
f 45/78/3 49/100/3 51/79/3
f 41/81/17 45/78/17 47/80/17
f 42/73/18 44/132/18 48/82/18
f 42/84/19 46/89/19 45/85/19
f 52/86/4 56/144/4 54/87/4
f 48/82/4 52/86/4 50/88/4
f 46/89/20 50/96/20 49/90/20
f 47/91/1 51/98/1 52/92/1
f 55/93/7 53/145/7 54/94/7
f 50/96/20 54/146/20 53/97/20
f 51/98/1 55/147/1 56/99/1
f 49/100/3 53/148/3 55/101/3
f 58/102/57 62/149/57 64/103/57
f 12/22/45 10/74/45 58/102/45
f 10/18/58 9/20/58 57/105/58
f 61/107/47 63/133/47 67/108/47
f 58/110/59 57/134/59 61/111/59
f 59/113/3 63/150/3 61/114/3
f 67/115/60 71/151/60 69/116/60
f 64/118/50 62/121/50 66/119/50
f 62/121/28 61/107/28 65/109/28
f 69/122/61 71/135/61 72/123/61
f 68/125/62 66/136/62 70/126/62
f 65/128/7 69/127/7 70/129/7
f 7/2/1 76/137/1 74/1/1
f 84/5/31 75/28/31 73/4/31
f 83/8/3 73/32/3 8/7/3
f 77/11/3 11/16/3 14/10/3
f 84/13/4 23/15/4 6/14/4
f 117/17/5 59/113/5 11/16/5
f 101/19/32 102/84/32 78/18/32
f 12/22/4 78/74/4 81/21/4
f 20/25/4 82/26/4 75/24/4
f 19/23/4 81/21/4 82/26/4
f 82/27/9 80/29/9 73/4/9
f 81/30/9 79/138/9 80/29/9
f 80/31/3 13/33/3 8/7/3
f 79/12/3 14/10/3 13/33/3
f 76/34/4 7/35/4 23/15/4
f 74/36/3 83/8/3 24/9/3
f 74/36/8 86/39/8 85/38/8
f 92/41/7 90/58/7 86/40/7
f 76/43/34 88/42/34 86/40/34
f 87/44/55 88/51/55 76/34/55
f 85/45/36 87/50/36 84/5/36
f 93/47/9 95/66/9 91/46/9
f 90/49/3 89/59/3 85/38/3
f 89/48/9 91/46/9 87/50/9
f 91/52/4 92/56/4 88/51/4
f 100/54/7 98/139/7 94/53/7
f 95/57/4 96/68/4 92/56/4
f 96/55/7 94/53/7 90/58/7
f 94/60/3 93/64/3 89/59/3
f 100/62/1 99/140/1 97/61/1
f 98/65/3 97/141/3 93/64/3
f 97/67/9 99/142/9 95/66/9
f 99/69/4 100/143/4 96/68/4
f 108/71/37 107/91/37 103/70/37
f 102/73/63 104/132/63 81/21/63
f 103/75/39 101/81/39 77/11/39
f 104/72/40 103/70/40 79/76/40
f 111/79/3 109/100/3 105/78/3
f 107/80/41 105/78/41 101/81/41
f 106/83/42 108/82/42 104/132/42
f 105/85/43 106/89/43 102/84/43
f 114/87/4 116/144/4 112/86/4
f 110/88/4 112/86/4 108/82/4
f 109/90/20 110/96/20 106/89/20
f 112/92/1 111/98/1 107/91/1
f 114/94/9 113/145/9 115/93/9
f 113/97/20 114/146/20 110/96/20
f 116/99/1 115/147/1 111/98/1
f 115/101/3 113/148/3 109/100/3
f 64/103/57 120/149/57 118/102/57
f 12/22/64 60/104/64 118/102/64
f 78/18/65 118/106/65 117/105/65
f 119/107/66 121/109/66 67/108/66
f 118/110/67 120/112/67 119/111/67
f 119/114/3 63/150/3 59/113/3
f 123/116/68 71/151/68 67/115/68
f 64/118/69 68/120/69 122/119/69
f 120/121/51 122/119/51 121/109/51
f 123/122/70 124/124/70 72/123/70
f 68/125/71 72/127/71 124/126/71
f 122/130/9 124/129/9 123/127/9
